<mxfile host="app.diagrams.net" modified="2024-05-28T08:03:34.234Z" agent="Mozilla/5.0 (Windows NT 10.0; Win64; x64) AppleWebKit/537.36 (KHTML, like Gecko) Chrome/125.0.0.0 Safari/537.36" etag="06cOK005HCu6e9m46SQQ" version="24.4.8" type="device">
  <diagram id="C5RBs43oDa-KdzZeNtuy" name="Page-1">
    <mxGraphModel dx="3500" dy="3026" grid="1" gridSize="10" guides="1" tooltips="1" connect="1" arrows="1" fold="1" page="1" pageScale="1" pageWidth="827" pageHeight="1169" math="0" shadow="0">
      <root>
        <mxCell id="WIyWlLk6GJQsqaUBKTNV-0" />
        <mxCell id="WIyWlLk6GJQsqaUBKTNV-1" parent="WIyWlLk6GJQsqaUBKTNV-0" />
        <mxCell id="96ArR8csFKeN7ygmjYJl-0" style="edgeStyle=orthogonalEdgeStyle;rounded=0;orthogonalLoop=1;jettySize=auto;html=1;exitX=0.5;exitY=1;exitDx=0;exitDy=0;entryX=0.5;entryY=0;entryDx=0;entryDy=0;" edge="1" parent="WIyWlLk6GJQsqaUBKTNV-1" source="EiIt_3fmr46Ddawl57L8-19" target="EiIt_3fmr46Ddawl57L8-20">
          <mxGeometry relative="1" as="geometry" />
        </mxCell>
        <mxCell id="EiIt_3fmr46Ddawl57L8-19" value="INICIO" style="ellipse;whiteSpace=wrap;html=1;fillColor=#f8cecc;strokeColor=#b85450;" parent="WIyWlLk6GJQsqaUBKTNV-1" vertex="1">
          <mxGeometry x="1315" y="-140" width="120" height="80" as="geometry" />
        </mxCell>
        <mxCell id="96ArR8csFKeN7ygmjYJl-1" style="edgeStyle=orthogonalEdgeStyle;rounded=0;orthogonalLoop=1;jettySize=auto;html=1;exitX=0.5;exitY=1;exitDx=0;exitDy=0;entryX=0.5;entryY=0;entryDx=0;entryDy=0;" edge="1" parent="WIyWlLk6GJQsqaUBKTNV-1" source="EiIt_3fmr46Ddawl57L8-20" target="EiIt_3fmr46Ddawl57L8-25">
          <mxGeometry relative="1" as="geometry" />
        </mxCell>
        <mxCell id="EiIt_3fmr46Ddawl57L8-20" value="Iniciar variaveis" style="rounded=0;whiteSpace=wrap;html=1;fillColor=#dae8fc;strokeColor=#6c8ebf;" parent="WIyWlLk6GJQsqaUBKTNV-1" vertex="1">
          <mxGeometry x="1280" y="-20" width="190" height="60" as="geometry" />
        </mxCell>
        <mxCell id="EiIt_3fmr46Ddawl57L8-124" style="edgeStyle=orthogonalEdgeStyle;rounded=0;orthogonalLoop=1;jettySize=auto;html=1;exitX=0.5;exitY=1;exitDx=0;exitDy=0;entryX=0.5;entryY=0;entryDx=0;entryDy=0;" parent="WIyWlLk6GJQsqaUBKTNV-1" source="EiIt_3fmr46Ddawl57L8-25" target="EiIt_3fmr46Ddawl57L8-123" edge="1">
          <mxGeometry relative="1" as="geometry" />
        </mxCell>
        <mxCell id="EiIt_3fmr46Ddawl57L8-25" value="LerConfiguracoes" style="rounded=0;whiteSpace=wrap;html=1;fillColor=#dae8fc;strokeColor=#6c8ebf;" parent="WIyWlLk6GJQsqaUBKTNV-1" vertex="1">
          <mxGeometry x="1280" y="80" width="190" height="60" as="geometry" />
        </mxCell>
        <mxCell id="EiIt_3fmr46Ddawl57L8-82" style="edgeStyle=orthogonalEdgeStyle;rounded=0;orthogonalLoop=1;jettySize=auto;html=1;exitX=0.5;exitY=1;exitDx=0;exitDy=0;entryX=0.5;entryY=0;entryDx=0;entryDy=0;" parent="WIyWlLk6GJQsqaUBKTNV-1" source="EiIt_3fmr46Ddawl57L8-26" target="EiIt_3fmr46Ddawl57L8-74" edge="1">
          <mxGeometry relative="1" as="geometry" />
        </mxCell>
        <mxCell id="EiIt_3fmr46Ddawl57L8-83" style="edgeStyle=orthogonalEdgeStyle;rounded=0;orthogonalLoop=1;jettySize=auto;html=1;exitX=0.5;exitY=1;exitDx=0;exitDy=0;entryX=0.5;entryY=0;entryDx=0;entryDy=0;" parent="WIyWlLk6GJQsqaUBKTNV-1" source="EiIt_3fmr46Ddawl57L8-26" target="EiIt_3fmr46Ddawl57L8-76" edge="1">
          <mxGeometry relative="1" as="geometry" />
        </mxCell>
        <mxCell id="EiIt_3fmr46Ddawl57L8-84" style="edgeStyle=orthogonalEdgeStyle;rounded=0;orthogonalLoop=1;jettySize=auto;html=1;exitX=0.5;exitY=1;exitDx=0;exitDy=0;entryX=0.5;entryY=0;entryDx=0;entryDy=0;" parent="WIyWlLk6GJQsqaUBKTNV-1" source="EiIt_3fmr46Ddawl57L8-26" target="EiIt_3fmr46Ddawl57L8-79" edge="1">
          <mxGeometry relative="1" as="geometry" />
        </mxCell>
        <mxCell id="EiIt_3fmr46Ddawl57L8-85" style="edgeStyle=orthogonalEdgeStyle;rounded=0;orthogonalLoop=1;jettySize=auto;html=1;exitX=0.5;exitY=1;exitDx=0;exitDy=0;" parent="WIyWlLk6GJQsqaUBKTNV-1" source="EiIt_3fmr46Ddawl57L8-26" target="EiIt_3fmr46Ddawl57L8-81" edge="1">
          <mxGeometry relative="1" as="geometry" />
        </mxCell>
        <mxCell id="EiIt_3fmr46Ddawl57L8-26" value="opção selecionada" style="rounded=0;whiteSpace=wrap;html=1;fillColor=#dae8fc;strokeColor=#6c8ebf;" parent="WIyWlLk6GJQsqaUBKTNV-1" vertex="1">
          <mxGeometry x="1280" y="290" width="190" height="60" as="geometry" />
        </mxCell>
        <mxCell id="EiIt_3fmr46Ddawl57L8-33" style="edgeStyle=orthogonalEdgeStyle;rounded=0;orthogonalLoop=1;jettySize=auto;html=1;exitX=0.5;exitY=1;exitDx=0;exitDy=0;entryX=0.5;entryY=0;entryDx=0;entryDy=0;" parent="WIyWlLk6GJQsqaUBKTNV-1" source="EiIt_3fmr46Ddawl57L8-27" target="EiIt_3fmr46Ddawl57L8-28" edge="1">
          <mxGeometry relative="1" as="geometry" />
        </mxCell>
        <mxCell id="EiIt_3fmr46Ddawl57L8-27" value="VerificarEInserirDados" style="rounded=0;whiteSpace=wrap;html=1;fillColor=#dae8fc;strokeColor=#6c8ebf;" parent="WIyWlLk6GJQsqaUBKTNV-1" vertex="1">
          <mxGeometry x="540" y="630" width="190" height="60" as="geometry" />
        </mxCell>
        <mxCell id="EiIt_3fmr46Ddawl57L8-34" style="edgeStyle=orthogonalEdgeStyle;rounded=0;orthogonalLoop=1;jettySize=auto;html=1;exitX=0.5;exitY=1;exitDx=0;exitDy=0;entryX=0.5;entryY=0;entryDx=0;entryDy=0;" parent="WIyWlLk6GJQsqaUBKTNV-1" source="EiIt_3fmr46Ddawl57L8-28" target="EiIt_3fmr46Ddawl57L8-29" edge="1">
          <mxGeometry relative="1" as="geometry" />
        </mxCell>
        <mxCell id="EiIt_3fmr46Ddawl57L8-28" value="LerConfiguracoes" style="rounded=0;whiteSpace=wrap;html=1;fillColor=#dae8fc;strokeColor=#6c8ebf;" parent="WIyWlLk6GJQsqaUBKTNV-1" vertex="1">
          <mxGeometry x="540" y="730" width="190" height="60" as="geometry" />
        </mxCell>
        <mxCell id="EiIt_3fmr46Ddawl57L8-35" style="edgeStyle=orthogonalEdgeStyle;rounded=0;orthogonalLoop=1;jettySize=auto;html=1;exitX=0.5;exitY=1;exitDx=0;exitDy=0;entryX=0.5;entryY=0;entryDx=0;entryDy=0;" parent="WIyWlLk6GJQsqaUBKTNV-1" source="EiIt_3fmr46Ddawl57L8-29" target="EiIt_3fmr46Ddawl57L8-30" edge="1">
          <mxGeometry relative="1" as="geometry" />
        </mxCell>
        <mxCell id="EiIt_3fmr46Ddawl57L8-29" value="establecer conectção a BD" style="rounded=0;whiteSpace=wrap;html=1;fillColor=#dae8fc;strokeColor=#6c8ebf;" parent="WIyWlLk6GJQsqaUBKTNV-1" vertex="1">
          <mxGeometry x="540" y="830" width="190" height="60" as="geometry" />
        </mxCell>
        <mxCell id="EiIt_3fmr46Ddawl57L8-36" style="edgeStyle=orthogonalEdgeStyle;rounded=0;orthogonalLoop=1;jettySize=auto;html=1;exitX=0;exitY=0.5;exitDx=0;exitDy=0;entryX=0.5;entryY=0;entryDx=0;entryDy=0;" parent="WIyWlLk6GJQsqaUBKTNV-1" source="EiIt_3fmr46Ddawl57L8-30" target="EiIt_3fmr46Ddawl57L8-31" edge="1">
          <mxGeometry relative="1" as="geometry" />
        </mxCell>
        <mxCell id="EiIt_3fmr46Ddawl57L8-71" value="Não" style="edgeLabel;html=1;align=center;verticalAlign=middle;resizable=0;points=[];" parent="EiIt_3fmr46Ddawl57L8-36" vertex="1" connectable="0">
          <mxGeometry x="-0.6803" y="-1" relative="1" as="geometry">
            <mxPoint as="offset" />
          </mxGeometry>
        </mxCell>
        <mxCell id="EiIt_3fmr46Ddawl57L8-30" value="verificar se os campos estão preenchidos" style="rhombus;whiteSpace=wrap;html=1;fillColor=#f8cecc;strokeColor=#b85450;" parent="WIyWlLk6GJQsqaUBKTNV-1" vertex="1">
          <mxGeometry x="501.88" y="920" width="266.25" height="80" as="geometry" />
        </mxCell>
        <mxCell id="EiIt_3fmr46Ddawl57L8-127" style="edgeStyle=orthogonalEdgeStyle;rounded=0;orthogonalLoop=1;jettySize=auto;html=1;exitX=0;exitY=0.5;exitDx=0;exitDy=0;entryX=0;entryY=0.75;entryDx=0;entryDy=0;" parent="WIyWlLk6GJQsqaUBKTNV-1" source="EiIt_3fmr46Ddawl57L8-31" target="EiIt_3fmr46Ddawl57L8-26" edge="1">
          <mxGeometry relative="1" as="geometry">
            <mxPoint x="1000" y="330" as="targetPoint" />
            <Array as="points">
              <mxPoint x="210" y="1080" />
              <mxPoint x="210" y="335" />
            </Array>
          </mxGeometry>
        </mxCell>
        <mxCell id="EiIt_3fmr46Ddawl57L8-31" value="aparece uma messagebox com o aviso &quot;por favor preencha todos os campos&quot;" style="rounded=0;whiteSpace=wrap;html=1;fillColor=#dae8fc;strokeColor=#6c8ebf;" parent="WIyWlLk6GJQsqaUBKTNV-1" vertex="1">
          <mxGeometry x="340" y="1050" width="190" height="60" as="geometry" />
        </mxCell>
        <mxCell id="EiIt_3fmr46Ddawl57L8-55" style="edgeStyle=orthogonalEdgeStyle;rounded=0;orthogonalLoop=1;jettySize=auto;html=1;exitX=0.5;exitY=1;exitDx=0;exitDy=0;entryX=0.5;entryY=0;entryDx=0;entryDy=0;" parent="WIyWlLk6GJQsqaUBKTNV-1" source="EiIt_3fmr46Ddawl57L8-32" target="EiIt_3fmr46Ddawl57L8-38" edge="1">
          <mxGeometry relative="1" as="geometry" />
        </mxCell>
        <mxCell id="EiIt_3fmr46Ddawl57L8-32" value="VerificarInsercaoTabela1" style="rounded=0;whiteSpace=wrap;html=1;fillColor=#dae8fc;strokeColor=#6c8ebf;" parent="WIyWlLk6GJQsqaUBKTNV-1" vertex="1">
          <mxGeometry x="720" y="1050" width="190" height="60" as="geometry" />
        </mxCell>
        <mxCell id="EiIt_3fmr46Ddawl57L8-37" style="edgeStyle=orthogonalEdgeStyle;rounded=0;orthogonalLoop=1;jettySize=auto;html=1;exitX=1;exitY=0.5;exitDx=0;exitDy=0;entryX=0.5;entryY=0;entryDx=0;entryDy=0;" parent="WIyWlLk6GJQsqaUBKTNV-1" source="EiIt_3fmr46Ddawl57L8-30" target="EiIt_3fmr46Ddawl57L8-32" edge="1">
          <mxGeometry relative="1" as="geometry" />
        </mxCell>
        <mxCell id="EiIt_3fmr46Ddawl57L8-70" value="Sim" style="edgeLabel;html=1;align=center;verticalAlign=middle;resizable=0;points=[];" parent="EiIt_3fmr46Ddawl57L8-37" vertex="1" connectable="0">
          <mxGeometry x="-0.6307" y="2" relative="1" as="geometry">
            <mxPoint as="offset" />
          </mxGeometry>
        </mxCell>
        <mxCell id="EiIt_3fmr46Ddawl57L8-56" style="edgeStyle=orthogonalEdgeStyle;rounded=0;orthogonalLoop=1;jettySize=auto;html=1;exitX=0.5;exitY=1;exitDx=0;exitDy=0;entryX=0.5;entryY=0;entryDx=0;entryDy=0;" parent="WIyWlLk6GJQsqaUBKTNV-1" source="EiIt_3fmr46Ddawl57L8-38" target="EiIt_3fmr46Ddawl57L8-39" edge="1">
          <mxGeometry relative="1" as="geometry" />
        </mxCell>
        <mxCell id="EiIt_3fmr46Ddawl57L8-38" value="LerConfiguracoes" style="rounded=0;whiteSpace=wrap;html=1;fillColor=#dae8fc;strokeColor=#6c8ebf;" parent="WIyWlLk6GJQsqaUBKTNV-1" vertex="1">
          <mxGeometry x="720" y="1160" width="190" height="60" as="geometry" />
        </mxCell>
        <mxCell id="EiIt_3fmr46Ddawl57L8-57" style="edgeStyle=orthogonalEdgeStyle;rounded=0;orthogonalLoop=1;jettySize=auto;html=1;exitX=0.5;exitY=1;exitDx=0;exitDy=0;entryX=0.5;entryY=0;entryDx=0;entryDy=0;" parent="WIyWlLk6GJQsqaUBKTNV-1" source="EiIt_3fmr46Ddawl57L8-39" target="EiIt_3fmr46Ddawl57L8-40" edge="1">
          <mxGeometry relative="1" as="geometry" />
        </mxCell>
        <mxCell id="EiIt_3fmr46Ddawl57L8-39" value="establecer conectção a BD" style="rounded=0;whiteSpace=wrap;html=1;fillColor=#dae8fc;strokeColor=#6c8ebf;" parent="WIyWlLk6GJQsqaUBKTNV-1" vertex="1">
          <mxGeometry x="720" y="1270" width="190" height="60" as="geometry" />
        </mxCell>
        <mxCell id="EiIt_3fmr46Ddawl57L8-72" style="edgeStyle=orthogonalEdgeStyle;rounded=0;orthogonalLoop=1;jettySize=auto;html=1;exitX=0.5;exitY=1;exitDx=0;exitDy=0;entryX=0.5;entryY=0;entryDx=0;entryDy=0;" parent="WIyWlLk6GJQsqaUBKTNV-1" source="EiIt_3fmr46Ddawl57L8-40" target="EiIt_3fmr46Ddawl57L8-42" edge="1">
          <mxGeometry relative="1" as="geometry" />
        </mxCell>
        <mxCell id="EiIt_3fmr46Ddawl57L8-40" value="Faz um SELECT na tabela 1" style="rounded=0;whiteSpace=wrap;html=1;fillColor=#dae8fc;strokeColor=#6c8ebf;" parent="WIyWlLk6GJQsqaUBKTNV-1" vertex="1">
          <mxGeometry x="720" y="1380" width="190" height="60" as="geometry" />
        </mxCell>
        <mxCell id="EiIt_3fmr46Ddawl57L8-43" style="edgeStyle=orthogonalEdgeStyle;rounded=0;orthogonalLoop=1;jettySize=auto;html=1;exitX=1;exitY=0.5;exitDx=0;exitDy=0;entryX=0.5;entryY=0;entryDx=0;entryDy=0;" parent="WIyWlLk6GJQsqaUBKTNV-1" source="EiIt_3fmr46Ddawl57L8-42" target="EiIt_3fmr46Ddawl57L8-45" edge="1">
          <mxGeometry relative="1" as="geometry">
            <mxPoint x="1049.13" y="1640" as="targetPoint" />
          </mxGeometry>
        </mxCell>
        <mxCell id="EiIt_3fmr46Ddawl57L8-67" value="Sim" style="edgeLabel;html=1;align=center;verticalAlign=middle;resizable=0;points=[];" parent="EiIt_3fmr46Ddawl57L8-43" vertex="1" connectable="0">
          <mxGeometry x="-0.6157" y="1" relative="1" as="geometry">
            <mxPoint x="1" as="offset" />
          </mxGeometry>
        </mxCell>
        <mxCell id="EiIt_3fmr46Ddawl57L8-42" value="verificar se ID_Ordem_de_Producao ja existe" style="rhombus;whiteSpace=wrap;html=1;fillColor=#f8cecc;strokeColor=#b85450;" parent="WIyWlLk6GJQsqaUBKTNV-1" vertex="1">
          <mxGeometry x="681" y="1490" width="266.25" height="80" as="geometry" />
        </mxCell>
        <mxCell id="EiIt_3fmr46Ddawl57L8-50" style="edgeStyle=orthogonalEdgeStyle;rounded=0;orthogonalLoop=1;jettySize=auto;html=1;exitX=1;exitY=0.5;exitDx=0;exitDy=0;entryX=0.5;entryY=0;entryDx=0;entryDy=0;" parent="WIyWlLk6GJQsqaUBKTNV-1" source="EiIt_3fmr46Ddawl57L8-44" target="EiIt_3fmr46Ddawl57L8-48" edge="1">
          <mxGeometry relative="1" as="geometry" />
        </mxCell>
        <mxCell id="EiIt_3fmr46Ddawl57L8-69" value="Sim" style="edgeLabel;html=1;align=center;verticalAlign=middle;resizable=0;points=[];" parent="EiIt_3fmr46Ddawl57L8-50" vertex="1" connectable="0">
          <mxGeometry x="-0.5258" y="1" relative="1" as="geometry">
            <mxPoint x="-11" y="1" as="offset" />
          </mxGeometry>
        </mxCell>
        <mxCell id="EiIt_3fmr46Ddawl57L8-61" style="edgeStyle=orthogonalEdgeStyle;rounded=0;orthogonalLoop=1;jettySize=auto;html=1;exitX=0;exitY=0.5;exitDx=0;exitDy=0;entryX=0.5;entryY=0;entryDx=0;entryDy=0;" parent="WIyWlLk6GJQsqaUBKTNV-1" source="EiIt_3fmr46Ddawl57L8-44" target="EiIt_3fmr46Ddawl57L8-60" edge="1">
          <mxGeometry relative="1" as="geometry" />
        </mxCell>
        <mxCell id="EiIt_3fmr46Ddawl57L8-68" value="Não" style="edgeLabel;html=1;align=center;verticalAlign=middle;resizable=0;points=[];" parent="EiIt_3fmr46Ddawl57L8-61" vertex="1" connectable="0">
          <mxGeometry x="-0.6082" y="2" relative="1" as="geometry">
            <mxPoint x="1" as="offset" />
          </mxGeometry>
        </mxCell>
        <mxCell id="EiIt_3fmr46Ddawl57L8-44" value="if o idOrdemExisteTabela1 = True" style="rhombus;whiteSpace=wrap;html=1;fillColor=#f8cecc;strokeColor=#b85450;" parent="WIyWlLk6GJQsqaUBKTNV-1" vertex="1">
          <mxGeometry x="922.8700000000001" y="1750" width="266.25" height="80" as="geometry" />
        </mxCell>
        <mxCell id="EiIt_3fmr46Ddawl57L8-46" style="edgeStyle=orthogonalEdgeStyle;rounded=0;orthogonalLoop=1;jettySize=auto;html=1;exitX=0.5;exitY=1;exitDx=0;exitDy=0;entryX=0.5;entryY=0;entryDx=0;entryDy=0;" parent="WIyWlLk6GJQsqaUBKTNV-1" source="EiIt_3fmr46Ddawl57L8-45" target="EiIt_3fmr46Ddawl57L8-44" edge="1">
          <mxGeometry relative="1" as="geometry" />
        </mxCell>
        <mxCell id="EiIt_3fmr46Ddawl57L8-45" value="&amp;nbsp;idOrdemExisteTabela1 = True" style="rounded=0;whiteSpace=wrap;html=1;fillColor=#dae8fc;strokeColor=#6c8ebf;" parent="WIyWlLk6GJQsqaUBKTNV-1" vertex="1">
          <mxGeometry x="961" y="1640" width="190" height="60" as="geometry" />
        </mxCell>
        <mxCell id="EiIt_3fmr46Ddawl57L8-128" style="edgeStyle=orthogonalEdgeStyle;rounded=0;orthogonalLoop=1;jettySize=auto;html=1;exitX=0.5;exitY=1;exitDx=0;exitDy=0;entryX=0;entryY=0.25;entryDx=0;entryDy=0;" parent="WIyWlLk6GJQsqaUBKTNV-1" target="EiIt_3fmr46Ddawl57L8-26" edge="1">
          <mxGeometry relative="1" as="geometry">
            <mxPoint x="1226" y="1940" as="sourcePoint" />
            <mxPoint x="1269.81" y="311.5999999999999" as="targetPoint" />
            <Array as="points">
              <mxPoint x="1226" y="2670" />
              <mxPoint x="170" y="2670" />
              <mxPoint x="170" y="305" />
            </Array>
          </mxGeometry>
        </mxCell>
        <mxCell id="EiIt_3fmr46Ddawl57L8-48" value="aparece uma messagebox com o aviso &quot;Essa ID_Ordem_de_Producao já existe na base de dados" style="rounded=0;whiteSpace=wrap;html=1;fillColor=#dae8fc;strokeColor=#6c8ebf;" parent="WIyWlLk6GJQsqaUBKTNV-1" vertex="1">
          <mxGeometry x="1141" y="1880" width="190" height="60" as="geometry" />
        </mxCell>
        <mxCell id="EiIt_3fmr46Ddawl57L8-112" style="edgeStyle=orthogonalEdgeStyle;rounded=0;orthogonalLoop=1;jettySize=auto;html=1;entryX=0.5;entryY=0;entryDx=0;entryDy=0;" parent="WIyWlLk6GJQsqaUBKTNV-1" source="EiIt_3fmr46Ddawl57L8-60" target="EiIt_3fmr46Ddawl57L8-111" edge="1">
          <mxGeometry relative="1" as="geometry" />
        </mxCell>
        <mxCell id="EiIt_3fmr46Ddawl57L8-60" value="InserirDadosTabela1" style="rounded=0;whiteSpace=wrap;html=1;fillColor=#dae8fc;strokeColor=#6c8ebf;" parent="WIyWlLk6GJQsqaUBKTNV-1" vertex="1">
          <mxGeometry x="761" y="1880" width="190" height="60" as="geometry" />
        </mxCell>
        <mxCell id="EiIt_3fmr46Ddawl57L8-75" style="edgeStyle=orthogonalEdgeStyle;rounded=0;orthogonalLoop=1;jettySize=auto;html=1;exitX=0.491;exitY=0.998;exitDx=0;exitDy=0;entryX=0.5;entryY=0;entryDx=0;entryDy=0;exitPerimeter=0;" parent="WIyWlLk6GJQsqaUBKTNV-1" source="EiIt_3fmr46Ddawl57L8-74" target="EiIt_3fmr46Ddawl57L8-27" edge="1">
          <mxGeometry relative="1" as="geometry" />
        </mxCell>
        <mxCell id="EiIt_3fmr46Ddawl57L8-74" value="Clicar no Botão 1 adicionar" style="shape=parallelogram;perimeter=parallelogramPerimeter;whiteSpace=wrap;html=1;fixedSize=1;fillColor=#d5e8d4;strokeColor=#82b366;" parent="WIyWlLk6GJQsqaUBKTNV-1" vertex="1">
          <mxGeometry x="524" y="490" width="225" height="60" as="geometry" />
        </mxCell>
        <mxCell id="EiIt_3fmr46Ddawl57L8-97" style="edgeStyle=orthogonalEdgeStyle;rounded=0;orthogonalLoop=1;jettySize=auto;html=1;exitX=0.5;exitY=1;exitDx=0;exitDy=0;entryX=0.5;entryY=0;entryDx=0;entryDy=0;" parent="WIyWlLk6GJQsqaUBKTNV-1" source="EiIt_3fmr46Ddawl57L8-76" target="EiIt_3fmr46Ddawl57L8-86" edge="1">
          <mxGeometry relative="1" as="geometry" />
        </mxCell>
        <mxCell id="EiIt_3fmr46Ddawl57L8-76" value="Clicar no Botão 2 procurar" style="shape=parallelogram;perimeter=parallelogramPerimeter;whiteSpace=wrap;html=1;fixedSize=1;fillColor=#d5e8d4;strokeColor=#82b366;" parent="WIyWlLk6GJQsqaUBKTNV-1" vertex="1">
          <mxGeometry x="1030" y="490" width="225" height="60" as="geometry" />
        </mxCell>
        <mxCell id="EiIt_3fmr46Ddawl57L8-79" value="Clicar no Botão 3 mostrar tabela" style="shape=parallelogram;perimeter=parallelogramPerimeter;whiteSpace=wrap;html=1;fixedSize=1;fillColor=#d5e8d4;strokeColor=#82b366;" parent="WIyWlLk6GJQsqaUBKTNV-1" vertex="1">
          <mxGeometry x="1460" y="490" width="225" height="60" as="geometry" />
        </mxCell>
        <mxCell id="EiIt_3fmr46Ddawl57L8-81" value="Clicar no Botão 4 abre o forms LeituraTag" style="shape=parallelogram;perimeter=parallelogramPerimeter;whiteSpace=wrap;html=1;fixedSize=1;fillColor=#d5e8d4;strokeColor=#82b366;" parent="WIyWlLk6GJQsqaUBKTNV-1" vertex="1">
          <mxGeometry x="1910" y="490" width="250" height="60" as="geometry" />
        </mxCell>
        <mxCell id="EiIt_3fmr46Ddawl57L8-91" style="edgeStyle=orthogonalEdgeStyle;rounded=0;orthogonalLoop=1;jettySize=auto;html=1;exitX=0.5;exitY=1;exitDx=0;exitDy=0;entryX=0.5;entryY=0;entryDx=0;entryDy=0;" parent="WIyWlLk6GJQsqaUBKTNV-1" source="EiIt_3fmr46Ddawl57L8-86" target="EiIt_3fmr46Ddawl57L8-87" edge="1">
          <mxGeometry relative="1" as="geometry" />
        </mxCell>
        <mxCell id="EiIt_3fmr46Ddawl57L8-86" value="LerConfiguracoes" style="rounded=0;whiteSpace=wrap;html=1;fillColor=#dae8fc;strokeColor=#6c8ebf;" parent="WIyWlLk6GJQsqaUBKTNV-1" vertex="1">
          <mxGeometry x="1047.5" y="630" width="190" height="60" as="geometry" />
        </mxCell>
        <mxCell id="EiIt_3fmr46Ddawl57L8-92" style="edgeStyle=orthogonalEdgeStyle;rounded=0;orthogonalLoop=1;jettySize=auto;html=1;exitX=0.5;exitY=1;exitDx=0;exitDy=0;entryX=0.5;entryY=0;entryDx=0;entryDy=0;" parent="WIyWlLk6GJQsqaUBKTNV-1" source="EiIt_3fmr46Ddawl57L8-87" target="EiIt_3fmr46Ddawl57L8-88" edge="1">
          <mxGeometry relative="1" as="geometry" />
        </mxCell>
        <mxCell id="EiIt_3fmr46Ddawl57L8-87" value="SELECT FROM table1 WHERE ID_Ordem_de_Producao = textBox5.Text" style="rounded=0;whiteSpace=wrap;html=1;fillColor=#dae8fc;strokeColor=#6c8ebf;" parent="WIyWlLk6GJQsqaUBKTNV-1" vertex="1">
          <mxGeometry x="1047.5" y="730" width="190" height="60" as="geometry" />
        </mxCell>
        <mxCell id="EiIt_3fmr46Ddawl57L8-93" style="edgeStyle=orthogonalEdgeStyle;rounded=0;orthogonalLoop=1;jettySize=auto;html=1;exitX=0.5;exitY=1;exitDx=0;exitDy=0;entryX=0.5;entryY=0;entryDx=0;entryDy=0;" parent="WIyWlLk6GJQsqaUBKTNV-1" source="EiIt_3fmr46Ddawl57L8-88" target="EiIt_3fmr46Ddawl57L8-89" edge="1">
          <mxGeometry relative="1" as="geometry" />
        </mxCell>
        <mxCell id="EiIt_3fmr46Ddawl57L8-88" value="Set DataTable como DataSource para a dataGridView1" style="rounded=0;whiteSpace=wrap;html=1;fillColor=#dae8fc;strokeColor=#6c8ebf;" parent="WIyWlLk6GJQsqaUBKTNV-1" vertex="1">
          <mxGeometry x="1047.5" y="830" width="190" height="60" as="geometry" />
        </mxCell>
        <mxCell id="EiIt_3fmr46Ddawl57L8-94" style="edgeStyle=orthogonalEdgeStyle;rounded=0;orthogonalLoop=1;jettySize=auto;html=1;entryX=0.5;entryY=0;entryDx=0;entryDy=0;" parent="WIyWlLk6GJQsqaUBKTNV-1" source="EiIt_3fmr46Ddawl57L8-89" target="EiIt_3fmr46Ddawl57L8-90" edge="1">
          <mxGeometry relative="1" as="geometry" />
        </mxCell>
        <mxCell id="EiIt_3fmr46Ddawl57L8-89" value="Show button3" style="rounded=0;whiteSpace=wrap;html=1;fillColor=#dae8fc;strokeColor=#6c8ebf;" parent="WIyWlLk6GJQsqaUBKTNV-1" vertex="1">
          <mxGeometry x="1047.5" y="940" width="190" height="60" as="geometry" />
        </mxCell>
        <mxCell id="EiIt_3fmr46Ddawl57L8-96" style="edgeStyle=orthogonalEdgeStyle;rounded=0;orthogonalLoop=1;jettySize=auto;html=1;exitX=0.5;exitY=1;exitDx=0;exitDy=0;entryX=0.5;entryY=0;entryDx=0;entryDy=0;" parent="WIyWlLk6GJQsqaUBKTNV-1" source="EiIt_3fmr46Ddawl57L8-90" target="EiIt_3fmr46Ddawl57L8-95" edge="1">
          <mxGeometry relative="1" as="geometry" />
        </mxCell>
        <mxCell id="EiIt_3fmr46Ddawl57L8-90" value="&amp;nbsp;Set label6 para ter o texto &quot;Resultados da pesquisa na BD (tabela 1)&quot;" style="rounded=0;whiteSpace=wrap;html=1;fillColor=#dae8fc;strokeColor=#6c8ebf;" parent="WIyWlLk6GJQsqaUBKTNV-1" vertex="1">
          <mxGeometry x="1047.5" y="1050" width="190" height="60" as="geometry" />
        </mxCell>
        <mxCell id="EiIt_3fmr46Ddawl57L8-131" style="edgeStyle=orthogonalEdgeStyle;rounded=0;orthogonalLoop=1;jettySize=auto;html=1;exitX=0.5;exitY=1;exitDx=0;exitDy=0;entryX=1;entryY=0.25;entryDx=0;entryDy=0;" parent="WIyWlLk6GJQsqaUBKTNV-1" source="EiIt_3fmr46Ddawl57L8-95" target="EiIt_3fmr46Ddawl57L8-26" edge="1">
          <mxGeometry relative="1" as="geometry">
            <Array as="points">
              <mxPoint x="1142" y="1240" />
              <mxPoint x="2430" y="1240" />
              <mxPoint x="2430" y="305" />
            </Array>
          </mxGeometry>
        </mxCell>
        <mxCell id="EiIt_3fmr46Ddawl57L8-95" value="Clear textBox5" style="rounded=0;whiteSpace=wrap;html=1;fillColor=#dae8fc;strokeColor=#6c8ebf;" parent="WIyWlLk6GJQsqaUBKTNV-1" vertex="1">
          <mxGeometry x="1047.5" y="1160" width="190" height="60" as="geometry" />
        </mxCell>
        <mxCell id="EiIt_3fmr46Ddawl57L8-98" style="edgeStyle=orthogonalEdgeStyle;rounded=0;orthogonalLoop=1;jettySize=auto;html=1;exitX=0.5;exitY=1;exitDx=0;exitDy=0;entryX=0.5;entryY=0;entryDx=0;entryDy=0;" parent="WIyWlLk6GJQsqaUBKTNV-1" target="EiIt_3fmr46Ddawl57L8-100" edge="1">
          <mxGeometry relative="1" as="geometry">
            <mxPoint x="1573" y="550" as="sourcePoint" />
          </mxGeometry>
        </mxCell>
        <mxCell id="EiIt_3fmr46Ddawl57L8-99" style="edgeStyle=orthogonalEdgeStyle;rounded=0;orthogonalLoop=1;jettySize=auto;html=1;exitX=0.5;exitY=1;exitDx=0;exitDy=0;entryX=0.5;entryY=0;entryDx=0;entryDy=0;" parent="WIyWlLk6GJQsqaUBKTNV-1" source="EiIt_3fmr46Ddawl57L8-100" target="EiIt_3fmr46Ddawl57L8-102" edge="1">
          <mxGeometry relative="1" as="geometry" />
        </mxCell>
        <mxCell id="EiIt_3fmr46Ddawl57L8-100" value="lerBaseDeDados()" style="rounded=0;whiteSpace=wrap;html=1;fillColor=#dae8fc;strokeColor=#6c8ebf;" parent="WIyWlLk6GJQsqaUBKTNV-1" vertex="1">
          <mxGeometry x="1477.5" y="630" width="190" height="60" as="geometry" />
        </mxCell>
        <mxCell id="EiIt_3fmr46Ddawl57L8-101" style="edgeStyle=orthogonalEdgeStyle;rounded=0;orthogonalLoop=1;jettySize=auto;html=1;exitX=0.5;exitY=1;exitDx=0;exitDy=0;entryX=0.5;entryY=0;entryDx=0;entryDy=0;" parent="WIyWlLk6GJQsqaUBKTNV-1" source="EiIt_3fmr46Ddawl57L8-102" target="EiIt_3fmr46Ddawl57L8-103" edge="1">
          <mxGeometry relative="1" as="geometry" />
        </mxCell>
        <mxCell id="EiIt_3fmr46Ddawl57L8-102" value="esconde o button3" style="rounded=0;whiteSpace=wrap;html=1;fillColor=#dae8fc;strokeColor=#6c8ebf;" parent="WIyWlLk6GJQsqaUBKTNV-1" vertex="1">
          <mxGeometry x="1477.5" y="730" width="190" height="60" as="geometry" />
        </mxCell>
        <mxCell id="EiIt_3fmr46Ddawl57L8-130" style="edgeStyle=orthogonalEdgeStyle;rounded=0;orthogonalLoop=1;jettySize=auto;html=1;exitX=0.5;exitY=1;exitDx=0;exitDy=0;entryX=1;entryY=0.5;entryDx=0;entryDy=0;" parent="WIyWlLk6GJQsqaUBKTNV-1" source="EiIt_3fmr46Ddawl57L8-103" target="EiIt_3fmr46Ddawl57L8-26" edge="1">
          <mxGeometry relative="1" as="geometry">
            <Array as="points">
              <mxPoint x="1572" y="910" />
              <mxPoint x="2400" y="910" />
              <mxPoint x="2400" y="320" />
            </Array>
          </mxGeometry>
        </mxCell>
        <mxCell id="EiIt_3fmr46Ddawl57L8-103" value="Set label6 para ter o texto &quot;SQL Producao (Tabela 1)&quot;" style="rounded=0;whiteSpace=wrap;html=1;fillColor=#dae8fc;strokeColor=#6c8ebf;" parent="WIyWlLk6GJQsqaUBKTNV-1" vertex="1">
          <mxGeometry x="1477.5" y="830" width="190" height="60" as="geometry" />
        </mxCell>
        <mxCell id="EiIt_3fmr46Ddawl57L8-107" style="edgeStyle=orthogonalEdgeStyle;rounded=0;orthogonalLoop=1;jettySize=auto;html=1;exitX=0;exitY=0.5;exitDx=0;exitDy=0;" parent="WIyWlLk6GJQsqaUBKTNV-1" source="EiIt_3fmr46Ddawl57L8-104" target="EiIt_3fmr46Ddawl57L8-106" edge="1">
          <mxGeometry relative="1" as="geometry" />
        </mxCell>
        <mxCell id="EiIt_3fmr46Ddawl57L8-109" value="Não" style="edgeLabel;html=1;align=center;verticalAlign=middle;resizable=0;points=[];" parent="EiIt_3fmr46Ddawl57L8-107" vertex="1" connectable="0">
          <mxGeometry x="-0.6531" y="-2" relative="1" as="geometry">
            <mxPoint as="offset" />
          </mxGeometry>
        </mxCell>
        <mxCell id="EiIt_3fmr46Ddawl57L8-108" style="edgeStyle=orthogonalEdgeStyle;rounded=0;orthogonalLoop=1;jettySize=auto;html=1;exitX=1;exitY=0.5;exitDx=0;exitDy=0;" parent="WIyWlLk6GJQsqaUBKTNV-1" source="EiIt_3fmr46Ddawl57L8-104" target="EiIt_3fmr46Ddawl57L8-105" edge="1">
          <mxGeometry relative="1" as="geometry" />
        </mxCell>
        <mxCell id="EiIt_3fmr46Ddawl57L8-110" value="Sim" style="edgeLabel;html=1;align=center;verticalAlign=middle;resizable=0;points=[];" parent="EiIt_3fmr46Ddawl57L8-108" vertex="1" connectable="0">
          <mxGeometry x="-0.5818" y="-3" relative="1" as="geometry">
            <mxPoint y="-3" as="offset" />
          </mxGeometry>
        </mxCell>
        <mxCell id="EiIt_3fmr46Ddawl57L8-104" value="if form LeituraTag não estiver aberto" style="rhombus;whiteSpace=wrap;html=1;fillColor=#f8cecc;strokeColor=#b85450;" parent="WIyWlLk6GJQsqaUBKTNV-1" vertex="1">
          <mxGeometry x="1901.88" y="585" width="266.25" height="80" as="geometry" />
        </mxCell>
        <mxCell id="EiIt_3fmr46Ddawl57L8-105" value="cria um novo form LeituraTag" style="rounded=0;whiteSpace=wrap;html=1;fillColor=#dae8fc;strokeColor=#6c8ebf;" parent="WIyWlLk6GJQsqaUBKTNV-1" vertex="1">
          <mxGeometry x="2140" y="730" width="190" height="60" as="geometry" />
        </mxCell>
        <mxCell id="EiIt_3fmr46Ddawl57L8-106" value="da show do form LeituraTag" style="rounded=0;whiteSpace=wrap;html=1;fillColor=#dae8fc;strokeColor=#6c8ebf;" parent="WIyWlLk6GJQsqaUBKTNV-1" vertex="1">
          <mxGeometry x="1740" y="730" width="190" height="60" as="geometry" />
        </mxCell>
        <mxCell id="EiIt_3fmr46Ddawl57L8-114" style="edgeStyle=orthogonalEdgeStyle;rounded=0;orthogonalLoop=1;jettySize=auto;html=1;exitX=0.5;exitY=1;exitDx=0;exitDy=0;entryX=0.5;entryY=0;entryDx=0;entryDy=0;" parent="WIyWlLk6GJQsqaUBKTNV-1" source="EiIt_3fmr46Ddawl57L8-111" target="EiIt_3fmr46Ddawl57L8-113" edge="1">
          <mxGeometry relative="1" as="geometry" />
        </mxCell>
        <mxCell id="EiIt_3fmr46Ddawl57L8-111" value="LerConfiguracoes" style="rounded=0;whiteSpace=wrap;html=1;fillColor=#dae8fc;strokeColor=#6c8ebf;" parent="WIyWlLk6GJQsqaUBKTNV-1" vertex="1">
          <mxGeometry x="761" y="2000" width="190" height="60" as="geometry" />
        </mxCell>
        <mxCell id="EiIt_3fmr46Ddawl57L8-116" style="edgeStyle=orthogonalEdgeStyle;rounded=0;orthogonalLoop=1;jettySize=auto;html=1;exitX=0.5;exitY=1;exitDx=0;exitDy=0;entryX=0.5;entryY=0;entryDx=0;entryDy=0;" parent="WIyWlLk6GJQsqaUBKTNV-1" source="EiIt_3fmr46Ddawl57L8-113" target="EiIt_3fmr46Ddawl57L8-115" edge="1">
          <mxGeometry relative="1" as="geometry" />
        </mxCell>
        <mxCell id="EiIt_3fmr46Ddawl57L8-113" value="establecer conectção a BD" style="rounded=0;whiteSpace=wrap;html=1;fillColor=#dae8fc;strokeColor=#6c8ebf;" parent="WIyWlLk6GJQsqaUBKTNV-1" vertex="1">
          <mxGeometry x="761" y="2120" width="190" height="60" as="geometry" />
        </mxCell>
        <mxCell id="EiIt_3fmr46Ddawl57L8-120" style="edgeStyle=orthogonalEdgeStyle;rounded=0;orthogonalLoop=1;jettySize=auto;html=1;exitX=0.5;exitY=1;exitDx=0;exitDy=0;entryX=0.5;entryY=0;entryDx=0;entryDy=0;" parent="WIyWlLk6GJQsqaUBKTNV-1" source="EiIt_3fmr46Ddawl57L8-115" target="EiIt_3fmr46Ddawl57L8-117" edge="1">
          <mxGeometry relative="1" as="geometry" />
        </mxCell>
        <mxCell id="EiIt_3fmr46Ddawl57L8-115" value="executa o coamndo INSERT INTO&amp;nbsp; tabela1" style="rounded=0;whiteSpace=wrap;html=1;fillColor=#dae8fc;strokeColor=#6c8ebf;" parent="WIyWlLk6GJQsqaUBKTNV-1" vertex="1">
          <mxGeometry x="761" y="2240" width="190" height="60" as="geometry" />
        </mxCell>
        <mxCell id="EiIt_3fmr46Ddawl57L8-121" style="edgeStyle=orthogonalEdgeStyle;rounded=0;orthogonalLoop=1;jettySize=auto;html=1;exitX=0.5;exitY=1;exitDx=0;exitDy=0;entryX=0.5;entryY=0;entryDx=0;entryDy=0;" parent="WIyWlLk6GJQsqaUBKTNV-1" source="EiIt_3fmr46Ddawl57L8-117" target="EiIt_3fmr46Ddawl57L8-118" edge="1">
          <mxGeometry relative="1" as="geometry" />
        </mxCell>
        <mxCell id="EiIt_3fmr46Ddawl57L8-117" value="executa o coamndo SELECT * na tabela1" style="rounded=0;whiteSpace=wrap;html=1;fillColor=#dae8fc;strokeColor=#6c8ebf;" parent="WIyWlLk6GJQsqaUBKTNV-1" vertex="1">
          <mxGeometry x="761" y="2350" width="190" height="60" as="geometry" />
        </mxCell>
        <mxCell id="EiIt_3fmr46Ddawl57L8-122" style="edgeStyle=orthogonalEdgeStyle;rounded=0;orthogonalLoop=1;jettySize=auto;html=1;exitX=0.5;exitY=1;exitDx=0;exitDy=0;entryX=0.5;entryY=0;entryDx=0;entryDy=0;" parent="WIyWlLk6GJQsqaUBKTNV-1" source="EiIt_3fmr46Ddawl57L8-118" target="EiIt_3fmr46Ddawl57L8-119" edge="1">
          <mxGeometry relative="1" as="geometry" />
        </mxCell>
        <mxCell id="EiIt_3fmr46Ddawl57L8-118" value="atualiza o DataGridView1" style="rounded=0;whiteSpace=wrap;html=1;fillColor=#dae8fc;strokeColor=#6c8ebf;" parent="WIyWlLk6GJQsqaUBKTNV-1" vertex="1">
          <mxGeometry x="761" y="2460" width="190" height="60" as="geometry" />
        </mxCell>
        <mxCell id="EiIt_3fmr46Ddawl57L8-132" style="edgeStyle=orthogonalEdgeStyle;rounded=0;orthogonalLoop=1;jettySize=auto;html=1;exitX=0.5;exitY=1;exitDx=0;exitDy=0;entryX=0;entryY=0.5;entryDx=0;entryDy=0;" parent="WIyWlLk6GJQsqaUBKTNV-1" source="EiIt_3fmr46Ddawl57L8-119" target="EiIt_3fmr46Ddawl57L8-26" edge="1">
          <mxGeometry relative="1" as="geometry">
            <Array as="points">
              <mxPoint x="856" y="2650" />
              <mxPoint x="190" y="2650" />
              <mxPoint x="190" y="320" />
            </Array>
          </mxGeometry>
        </mxCell>
        <mxCell id="EiIt_3fmr46Ddawl57L8-119" value="clear textBox1, textBox2, textBox3, textBox4" style="rounded=0;whiteSpace=wrap;html=1;fillColor=#dae8fc;strokeColor=#6c8ebf;" parent="WIyWlLk6GJQsqaUBKTNV-1" vertex="1">
          <mxGeometry x="761" y="2570" width="190" height="60" as="geometry" />
        </mxCell>
        <mxCell id="EiIt_3fmr46Ddawl57L8-125" style="edgeStyle=orthogonalEdgeStyle;rounded=0;orthogonalLoop=1;jettySize=auto;html=1;entryX=0.5;entryY=0;entryDx=0;entryDy=0;" parent="WIyWlLk6GJQsqaUBKTNV-1" source="EiIt_3fmr46Ddawl57L8-123" target="EiIt_3fmr46Ddawl57L8-26" edge="1">
          <mxGeometry relative="1" as="geometry" />
        </mxCell>
        <mxCell id="EiIt_3fmr46Ddawl57L8-123" value="LerConfiguracoes" style="rounded=0;whiteSpace=wrap;html=1;fillColor=#dae8fc;strokeColor=#6c8ebf;" parent="WIyWlLk6GJQsqaUBKTNV-1" vertex="1">
          <mxGeometry x="1280" y="190" width="190" height="60" as="geometry" />
        </mxCell>
      </root>
    </mxGraphModel>
  </diagram>
</mxfile>
